<svg width="52" height="36" viewBox="0 0 52 36" fill="none" xmlns="http://www.w3.org/2000/svg">
<path d="M8.99999 13.25C9.99999 11.19 12.47 9.63999 14.74 9.63999H40.95V7.97999C40.95 6.61999 39.84 5.49999 38.49 5.49999H27.67V4.05999C27.67 1.99999 26.02 0.329987 23.99 0.329987H17.7C16.72 0.329987 15.79 0.719986 15.09 1.42999C14.39 2.12999 14.01 3.05999 14.01 4.05999V5.49999H3.19999C1.83999 5.49999 0.73999 6.61999 0.73999 7.97999V30.15L8.99999 13.25ZM16.47 4.05999C16.47 3.72999 16.6 3.41999 16.83 3.17999C17.06 2.93999 17.37 2.81999 17.7 2.81999H23.99C24.67 2.81999 25.22 3.36999 25.22 4.05999V5.49999H16.47V4.05999ZM41.92 33.76C41.33 34.98 39.73 35.98 38.38 35.98H3.07999C1.72999 35.98 1.10999 34.98 1.70999 33.76L11.2 14.34C11.8 13.12 13.39 12.12 14.74 12.12H50.04C51.39 12.12 52.01 13.12 51.41 14.34L41.92 33.76Z" fill="#555555"/>
</svg>
